<svg width="71" height="64" xmlns="http://www.w3.org/2000/svg"><path fill="none" d="M-1-1h73v66H-1z"/><g><g stroke="null"><path fill="#4a90e2" d="M32.225.386c-.454.023-.903.11-1.317.262L5.362 10.023c-1.105.405-2.092 1.32-2.587 2.387a4.758 4.758 0 00-.146 3.517l16.434 44.797c.404 1.104 1.319 2.1 2.386 2.594 1.067.495 2.413.552 3.517.147l25.547-9.376c1.104-.405 2.092-1.319 2.586-2.386l.008-.015a4.758 4.758 0 00.138-3.502L36.812 3.388a4.768 4.768 0 00-2.37-2.586l-.016-.007a4.636 4.636 0 00-1.747-.409 5.078 5.078 0 00-.454 0h0z"/><path fill="#4a90e2" class="selected" d="M41.846 3.742L57.571 46.6A9.208 9.208 0 0152.1 58.415l-6.759 2.479 14.779.685c1.175.055 2.44-.41 3.31-1.2.869-.793 1.446-2.013 1.5-3.188l2.217-47.66c.055-1.175-.4-2.449-1.193-3.318-.792-.87-2.011-1.446-3.186-1.5l-20.921-.971h0z"/></g></g></svg>