<svg width="129" height="124" xmlns="http://www.w3.org/2000/svg"><path fill="none" d="M-1-1h131v126H-1z"/><g><path stroke="null" fill="#f5a623" d="M58.304 3.025a8.265 8.265 0 00-2.426.482L8.8 20.784c-2.035.746-3.855 2.431-4.766 4.398-.911 1.965-1.016 4.447-.27 6.482l30.285 82.554c.746 2.034 2.43 3.869 4.396 4.78 1.967.911 4.449 1.016 6.482.27l47.08-17.277c2.034-.747 3.854-2.431 4.765-4.397l.014-.029c.9-1.962.999-4.429.256-6.454L66.757 8.557c-.742-2.025-2.414-3.851-4.368-4.766l-.028-.014c-.983-.456-2.099-.706-3.22-.753a9.359 9.359 0 00-.837 0h0z"/><path stroke="null" fill="#f5a623" class="selected" d="M76.035 9.209l28.979 78.98a16.996 16.996 0 01-.54 12.98 16.968 16.968 0 01-9.545 8.794l-12.455 4.567 27.234 1.262c2.165.101 4.498-.753 6.1-2.212 1.602-1.46 2.665-3.709 2.766-5.874l4.085-87.83c.1-2.165-.739-4.512-2.198-6.114-1.46-1.602-3.708-2.664-5.873-2.766L76.035 9.208h0z"/></g></svg>