<svg width="208" height="203" xmlns="http://www.w3.org/2000/svg"><path fill="none" d="M-1-1h210v205H-1z"/><g><path stroke="null" fill="#9013fe" d="M95.534 4.865c-1.38.07-2.744.334-4.003.797L13.844 34.17c-3.357 1.232-6.361 4.013-7.864 7.258-1.504 3.243-1.677 7.339-.445 10.696l49.974 136.228c1.231 3.357 4.01 6.385 7.255 7.888 3.245 1.504 7.34 1.677 10.696.445l77.689-28.51c3.358-1.231 6.361-4.01 7.865-7.256l.022-.047c1.485-3.237 1.648-7.308.423-10.65L109.484 13.995c-1.225-3.34-3.983-6.355-7.209-7.865l-.046-.022c-1.622-.753-3.463-1.166-5.314-1.242a15.443 15.443 0 00-1.38 0h0z"/><path stroke="null" fill="#9013fe" class="selected" d="M124.794 15.07l47.82 130.33a28.046 28.046 0 01-.89 21.418 28 28 0 01-15.752 14.512l-20.553 7.538 44.941 2.082c3.573.167 7.423-1.243 10.067-3.65 2.642-2.41 4.397-6.12 4.563-9.693L201.73 32.67c.166-3.571-1.22-7.443-3.627-10.088-2.41-2.644-6.118-4.396-9.691-4.563l-63.62-2.951v.001z"/></g></svg>