<svg width="420" height="400" xmlns="http://www.w3.org/2000/svg"><path fill="none" d="M-1-1h422v402H-1z"/><g><defs><linearGradient id="c" y2="1" y1="0" x2="0" x1="0"><stop stop-color="#c9c9c9" offset="0%"/><stop stop-color="#9b9b9b" offset="100%"/></linearGradient><linearGradient y2="1" y1="0" x2="0" x1="0" id="d"><stop stop-color="#c9c9c9" offset="0%"/><stop stop-color="#9b9b9b" offset="100%"/></linearGradient></defs><g stroke="null"><g transform="matrix(.01892 0 0 .0161 300.594 221.674)"><path fill="#fff" d="M786.132 1072.436h542v402h-542z"/></g><g transform="matrix(.01892 0 0 .0161 300.594 221.674)"><defs transform="translate(787.132 1073.436)"><linearGradient stroke="null" x1="0" x2="0" y1="0" y2="1" id="a"><stop offset="0%" stop-color="#c9c9c9"/><stop offset="100%" stop-color="#9b9b9b"/></linearGradient><linearGradient stroke="null" id="b" x1="0" x2="0" y1="0" y2="1"><stop offset="0%" stop-color="#c9c9c9"/><stop offset="100%" stop-color="#9b9b9b"/></linearGradient></defs><path d="M1063.757 1255.409a1.352 1.235 0 00-.397.072l-7.702 2.581c-.333.112-.63.364-.78.657a1.206 1.206 0 00-.044.969l4.955 12.334c.122.304.398.578.72.714a1.56 1.56 0 001.06.04l7.702-2.58c.333-.112.63-.364.78-.658l.002-.004c.147-.293.163-.662.042-.964l-4.955-12.334a1.366 1.366 0 00-.715-.713l-.004-.002a1.508 1.508 0 00-.664-.112h0z" fill="url(#a)"/><path d="M1066.658 1256.333l4.74 11.8a2.78 2.54 0 01-.087 1.94 2.776 2.535 0 01-1.562 1.313l-2.038.683 4.456.188a1.52 1.52 0 00.998-.33 1.27 1.27 0 00.452-.878l.669-13.122a1.248 1.248 0 00-.36-.914 1.496 1.496 0 00-.96-.413l-6.308-.267h0z" fill="url(#b)"/></g><path fill="url(#c)" d="M185.292 2.862a27.177 27.177 0 00-7.976 1.586L22.517 61.254c-6.69 2.455-12.675 7.996-15.67 14.463C3.85 82.179 3.505 90.34 5.96 97.03l99.58 271.448c2.451 6.69 7.99 12.722 14.455 15.716 6.466 2.997 14.627 3.343 21.313.888l154.802-56.81c6.691-2.453 12.676-7.992 15.672-14.457l.044-.094c2.959-6.45 3.284-14.562.842-21.22l-99.58-271.45c-2.44-6.657-7.937-12.662-14.363-15.671l-.093-.045c-3.232-1.5-6.9-2.322-10.588-2.475a30.773 30.773 0 00-2.752 0v.002z"/><path fill="url(#d)" d="M243.595 23.196l95.286 259.694a55.884 55.884 0 01-1.773 42.678 55.794 55.794 0 01-31.387 28.918l-40.955 15.019 89.55 4.149c7.12.333 14.791-2.478 20.06-7.275 5.265-4.801 8.76-12.193 9.092-19.313L396.9 58.268c.332-7.116-2.43-14.833-7.228-20.101-4.8-5.269-12.19-8.761-19.31-9.094l-126.768-5.88.001.003z"/></g></g></svg>